<svg xmlns="http://www.w3.org/2000/svg" viewBox="0 0 74 94">
  <title>MN-Do</title>
  <g>
    <path d="M10.3,35.48c.19.52,2.16,3.37,2.42,3.82A30.51,30.51,0,0,0,6,58.41,31.1,31.1,0,0,0,37,89.38c18,0,30.93-15.05,30.93-31,0-9.62-5-22.48-19.47-28.74l4.81-2.39c5.89,3,18.93,12.71,18.92,31.1A35.2,35.2,0,0,1,37,93.61C16.2,93.61,1.84,76.37,1.84,58.39A35.31,35.31,0,0,1,10.3,35.48Z"
          style="fill: #fff"/>
    <path d="M55.38,59.72c-.63-3.31-3.13-7.41-8.17-10C40.06,46,31.53,42.2,26.15,37.53l22-12s-3.05-10.49-3.73-14.34c-1-5.77-.26-6.94,1.56-7.81L45.29,0S21.38,9,16.23,15.42C8.61,25,13.9,35.53,19,40.44A76.34,76.34,0,0,0,36.31,52.36c-8.69,4.76-13.68,14.1-13,22.1.38,4.67,2.77,7.85,5.86,9.39,3.91,1.94,8.3,1.81,13.25-.67C51.12,78.81,56.86,67.61,55.38,59.72ZM37.68,79.32,34.44,60.21c1.43-1.76,6-4.37,7.91-4.29L45.4,75A21.24,21.24,0,0,1,37.68,79.32Z"
          style="fill: #fff"/>
  </g>
</svg>
